name C:\Users\r0593348\3dpredictsim\Results\Batchsim_tmt_linear_v2\Pog_s1_tmt_bCst_d02_k250_ig24_act.mot
datacolumns 128
datarows 4
range 0.54517798 0.57788866
endheader
time	pelvis_tilt	pelvis_list	pelvis_rotation	pelvis_tx	pelvis_ty	pelvis_tz	hip_flexion_l	hip_adduction_l	hip_rotation_l	hip_flexion_r	hip_adduction_r	hip_rotation_r	knee_angle_l	knee_angle_r	ankle_angle_l	ankle_angle_r	subtalar_angle_l	subtalar_angle_r	tmt_angle_l	tmt_angle_r	mtp_angle_l	mtp_angle_r	lumbar_extension	lumbar_bending	lumbar_rotation	arm_flex_l	arm_add_l	arm_rot_l	arm_flex_r	arm_add_r	arm_rot_r	elbow_flex_l	elbow_flex_r	pro_sup_l	pro_sup_r	glut_med1_l/activation	glut_med2_l/activation	glut_med3_l/activation	glut_min1_l/activation	glut_min2_l/activation	glut_min3_l/activation	semimem_l/activation	semiten_l/activation	bifemlh_l/activation	bifemsh_l/activation	sar_l/activation	add_long_l/activation	add_brev_l/activation	add_mag1_l/activation	add_mag2_l/activation	add_mag3_l/activation	tfl_l/activation	pect_l/activation	grac_l/activation	glut_max1_l/activation	glut_max2_l/activation	glut_max3_l/activation	iliacus_l/activation	psoas_l/activation	quad_fem_l/activation	gem_l/activation	peri_l/activation	rect_fem_l/activation	vas_med_l/activation	vas_int_l/activation	vas_lat_l/activation	med_gas_l/activation	lat_gas_l/activation	soleus_l/activation	tib_post_l/activation	flex_dig_l/activation	flex_hal_l/activation	tib_ant_l/activation	per_brev_l/activation	per_long_l/activation	per_tert_l/activation	ext_dig_l/activation	ext_hal_l/activation	ercspn_l/activation	intobl_l/activation	extobl_l/activation	glut_med1_r/activation	glut_med2_r/activation	glut_med3_r/activation	glut_min1_r/activation	glut_min2_r/activation	glut_min3_r/activation	semimem_r/activation	semiten_r/activation	bifemlh_r/activation	bifemsh_r/activation	sar_r/activation	add_long_r/activation	add_brev_r/activation	add_mag1_r/activation	add_mag2_r/activation	add_mag3_r/activation	tfl_r/activation	pect_r/activation	grac_r/activation	glut_max1_r/activation	glut_max2_r/activation	glut_max3_r/activation	iliacus_r/activation	psoas_r/activation	quad_fem_r/activation	gem_r/activation	peri_r/activation	rect_fem_r/activation	vas_med_r/activation	vas_int_r/activation	vas_lat_r/activation	med_gas_r/activation	lat_gas_r/activation	soleus_r/activation	tib_post_r/activation	flex_dig_r/activation	flex_hal_r/activation	tib_ant_r/activation	per_brev_r/activation	per_long_r/activation	per_tert_r/activation	ext_dig_r/activation	ext_hal_r/activation	ercspn_r/activation	intobl_r/activation	extobl_r/activation	
          0.54517798	          1.70338551	         -2.34012824	         -6.33821825	          0.68147248	          0.89727848	          0.00318404	         23.94859993	         -2.61722252	         -5.31361941	        -16.31497577	          2.26903124	         -1.50529427	        -14.48860989	        -18.11414135	        -28.98089945	        -43.67673783	         -3.21476923	        -13.54500789	         -0.44049507	          2.54112918	         -1.41585216	         46.45148568	         -0.71269222	          4.40793153	          1.25418202	        -18.00247438	        -13.45257025	         16.83211339	          2.56744244	        -13.46653297	          9.33211080	         20.95292226	         25.95005737	         86.51662706	         86.51662706	          0.08300629	          0.11223463	          0.05908653	          0.05000108	          0.05000080	          0.05000054	          0.11758890	          0.07122540	          0.12819744	          0.05000010	          0.05395021	          0.05684832	          0.09750730	          0.13616728	          0.16262041	          0.14250128	          0.05000010	          0.05000056	          0.08251275	          0.12292357	          0.14871177	          0.16902044	          0.06854007	          0.06509611	          0.10114590	          0.05000128	          0.11872388	          0.05000001	          0.11005021	          0.11386060	          0.10158918	          0.05908629	          0.05908628	          0.05908628	          0.05000068	          0.05000043	          0.05908613	          0.05000022	          0.11804122	          0.08869531	          0.27165887	          0.09415618	          0.07963007	          0.05000000	          0.14206514	          0.09533562	          0.18380917	          0.05000050	          0.05000031	          0.16121905	          0.05743873	          0.05000389	          0.05000432	          0.05000026	          0.05000068	          0.05000032	          0.06314361	          0.35048231	          0.22500664	          0.10501323	          0.05002312	          0.05423669	          0.08372817	          0.12141775	          0.08011839	          0.05000226	          0.05000223	          0.05000492	          0.24898310	          0.41018765	          0.17405025	          0.05908700	          0.05908628	          0.25065117	          0.07131567	          0.08363470	          0.07577912	          0.07946528	          0.12564029	          0.05633299	          0.13616661	          0.08217165	          0.08941217	          0.27814812	          0.26034323	          0.12020019	          0.73398673	          0.77658534	          0.10760875	          0.05000001	          0.05000006	          0.06327805	
          0.55608154	          1.72940304	         -2.48458768	         -6.33092263	          0.69881032	          0.89521796	          0.00299657	         23.32917881	         -2.50356590	         -5.03340480	        -16.07588038	          2.12032464	         -1.80032262	        -15.02348703	        -19.95944306	        -27.38644550	        -44.80889184	         -3.84913785	        -12.90421857	         -0.06935423	          2.10592881	         -0.48887417	         44.37456565	         -0.51220938	          4.22776201	          1.33765672	        -19.19618949	        -13.44974606	         17.14359134	          2.45561113	        -13.48783121	          9.65855820	         21.02929368	         26.21836855	         86.51662706	         86.51662706	          0.11741828	          0.19417657	          0.05000026	          0.05908649	          0.05908394	          0.05000073	          0.09950606	          0.06027236	          0.10848322	          0.05661626	          0.05000051	          0.06982371	          0.08251265	          0.11522748	          0.13761265	          0.12058744	          0.05000036	          0.06982095	          0.06982400	          0.10402044	          0.12584290	          0.14302847	          0.06312996	          0.05508569	          0.08559173	          0.05000045	          0.34561460	          0.05000085	          0.22301647	          0.22111245	          0.19934107	          0.05000000	          0.05000000	          0.05000000	          0.09477040	          0.05000004	          0.05000001	          0.10771902	          0.09988883	          0.07505574	          0.29551677	          0.14022190	          0.21076250	          0.05000009	          0.12021835	          0.08067491	          0.15554299	          0.05000009	          0.05000007	          0.13642679	          0.05000082	          0.05000017	          0.05000052	          0.05000005	          0.05000008	          0.05000006	          0.05908692	          0.30219443	          0.25006507	          0.11124166	          0.05000129	          0.05000019	          0.07085253	          0.10274686	          0.06779799	          0.05000161	          0.05000090	          0.05000063	          0.21069446	          0.34710896	          0.14728492	          0.05000081	          0.05000013	          0.21210600	          0.07031799	          0.08562901	          0.07250536	          0.06724532	          0.11405663	          0.05000042	          0.11522689	          0.06953535	          0.07566237	          0.33371728	          0.23996454	          0.10171594	          0.84595937	          0.87062692	          0.22115395	          0.05000002	          0.05000000	          0.07472421	
          0.56698510	          1.75966593	         -2.61987981	         -6.28633853	          0.71616488	          0.89285139	          0.00278168	         22.51149184	         -2.33916700	         -4.73958339	        -15.69288554	          1.98166415	         -2.06599173	        -16.01760234	        -22.10285202	        -25.23898353	        -45.49864524	         -4.52820341	        -12.25610826	          0.83601456	          1.68957225	          1.63424852	         41.14781519	         -0.31228784	          4.02481269	          1.41700630	        -20.32077405	        -13.45094977	         17.44180649	          2.33527504	        -13.52059639	         10.01005051	         21.01364647	         26.40013071	         86.51662706	         86.51662706	          0.14682792	          0.21802972	          0.28444043	          0.05000037	          0.05000025	          0.25386811	          0.08420401	          0.05100368	          0.09180066	          0.05000002	          0.05000370	          0.05908626	          0.06982386	          0.09750781	          0.11645058	          0.10204350	          0.07891346	          0.05908419	          0.05908650	          0.08802461	          0.10649084	          0.12103355	          0.05908533	          0.05908632	          0.19016149	          0.09569467	          0.29246615	          0.06982387	          0.22233519	          0.23601517	          0.21309459	          0.11522953	          0.13808701	          0.10696550	          0.28238505	          0.38828705	          0.33723510	          0.09115397	          0.08452793	          0.06982395	          0.25007216	          0.11865856	          0.17835143	          0.05000000	          0.10173116	          0.06826876	          0.13162358	          0.05908628	          0.06006742	          0.11544709	          0.05000050	          0.05908258	          0.05500094	          0.05000157	          0.06982159	          0.05000008	          0.05000087	          0.25572305	          0.36836295	          0.22581879	          0.08492845	          0.14939954	          0.05995688	          0.08694658	          0.05737276	          0.05000345	          0.05000325	          0.05013784	          0.17829384	          0.29373051	          0.12572860	          0.07254145	          0.06675113	          0.17948832	          0.05950459	          0.08251300	          0.08251266	          0.06084452	          0.09773903	          0.05000549	          0.09750729	          0.05884235	          0.06402702	          0.33870892	          0.20306407	          0.08607418	          0.86437675	          0.92508366	          0.42923361	          0.05000000	          0.05908649	          0.08251247	
          0.57788866	          1.79035548	         -2.74074949	         -6.20530431	          0.73335587	          0.89041221	          0.00254266	         21.46801123	         -2.11867853	         -4.41902461	        -15.17334344	          1.84797241	         -2.30327529	        -16.91813276	        -24.43086572	        -22.51740521	        -45.88507010	         -5.21103921	        -11.58778838	          1.80016193	          1.20737445	          4.07404602	         36.82407194	         -0.12507174	          3.79650741	          1.49201133	        -21.33819265	        -13.45150565	         17.72097176	          2.23407056	        -13.55572338	         10.40684397	         20.89454271	         26.47292273	         86.51662706	         86.51662706	          0.19245469	          0.32964832	          0.43887198	          0.06712973	          0.30443787	          0.38286005	          0.07125511	          0.05000022	          0.07768355	          0.08251265	          0.06689811	          0.05000005	          0.05908636	          0.08251306	          0.09854282	          0.08635126	          0.06677828	          0.05000030	          0.05000061	          0.19671298	          0.12307920	          0.10242101	          0.05000012	          0.05000017	          0.16091884	          0.16090859	          0.40197142	          0.05908636	          0.18814447	          0.19972074	          0.18032489	          0.09750955	          0.11685205	          0.10858239	          0.30799517	          0.40135048	          0.31872857	          0.07713630	          0.07152922	          0.05908642	          0.21161604	          0.10041124	          0.15092455	          0.05000000	          0.08608693	          0.05777039	          0.11138250	          0.05000018	          0.05083029	          0.09769365	          0.05000075	          0.05000060	          0.06820970	          0.05000011	          0.05908464	          0.05000004	          0.05000028	          0.21639810	          0.33861913	          0.19109358	          0.09298528	          0.12642501	          0.05073695	          0.07357609	          0.05000034	          0.05000843	          0.06249507	          0.09750570	          0.15087579	          0.25674680	          0.10639413	          0.06138621	          0.05648626	          0.15188658	          0.08251263	          0.06982433	          0.06982393	          0.05148927	          0.09782404	          0.05000040	          0.08251260	          0.05000059	          0.05418100	          0.33873100	          0.17183772	          0.07311281	          0.82720248	          0.95661809	          0.36322603	          0.06384310	          0.05000018	          0.06982370	
